<?xml version="1.0" standalone="no"?>
<!DOCTYPE svg PUBLIC "-//W3C//DTD SVG 20010904//EN"
 "http://www.w3.org/TR/2001/REC-SVG-20010904/DTD/svg10.dtd">
<svg version="1.0" xmlns="http://www.w3.org/2000/svg"
 width="580.000000pt" height="387.000000pt" viewBox="0 0 580.000000 387.000000"
 preserveAspectRatio="xMidYMid meet">

<g transform="translate(0.000000,387.000000) scale(0.100000,-0.100000)"
fill="#000000" stroke="none">
<path d="M2680 3799 c-162 -21 -337 -47 -425 -64 -128 -26 -419 -103 -470
-124 -11 -5 -42 -16 -70 -24 -51 -16 -121 -40 -350 -122 -71 -26 -143 -51
-160 -55 -16 -4 -43 -13 -60 -20 -72 -28 -348 -93 -455 -106 -66 -8 -80 -18
-80 -55 0 -22 6 -32 26 -39 14 -6 117 -10 228 -10 l203 0 134 44 c74 25 179
61 234 81 255 94 544 183 725 224 160 36 180 40 340 63 210 31 689 33 900 5
179 -25 406 -70 538 -108 35 -10 91 -26 137 -38 45 -13 191 -63 370 -126 88
-31 221 -77 295 -101 l134 -44 201 0 c110 0 210 3 223 6 18 5 22 13 22 44 l0
39 -57 10 c-32 6 -85 16 -118 22 -33 6 -76 14 -95 19 -196 49 -277 74 -565
175 -491 173 -724 236 -1015 275 -47 7 -116 16 -155 21 -100 14 -546 19 -635
8z"/>
<path d="M307 3063 c-4 -3 -7 -30 -7 -60 l0 -53 124 0 c104 0 125 -3 130 -16
8 -20 8 -1018 0 -1038 -5 -13 -27 -16 -134 -16 -94 0 -130 -3 -139 -13 -7 -10
-12 -176 -13 -558 l-3 -544 -37 -3 -38 -3 0 -235 0 -234 75 0 74 0 3 57 3 58
72 3 72 3 3 57 3 57 85 5 85 5 3 57 3 57 97 3 97 3 5 55 c5 54 6 55 40 60 l35
5 3 113 3 113 42 -3 42 -3 5 -110 5 -110 45 0 45 0 5 865 5 865 210 0 210 0 3
-105 3 -106 -31 -29 c-30 -29 -40 -78 -24 -120 6 -14 114 -95 128 -95 9 0 106
142 106 156 0 13 -78 66 -122 83 -16 6 -28 16 -29 23 -5 62 -5 139 -1 166 l5
32 316 -2 316 -3 3 -102 c3 -97 2 -103 -22 -125 -48 -44 -55 -108 -17 -152 20
-23 96 -76 110 -76 11 0 111 142 111 157 0 7 -76 57 -135 89 -18 10 -20 21
-20 110 l0 99 698 3 697 2 8 -22 c4 -13 6 -59 4 -103 l-3 -80 -64 -33 c-101
-53 -102 -56 -49 -132 25 -36 49 -72 54 -80 7 -13 12 -13 35 0 15 8 47 32 71
53 39 34 44 44 44 81 0 34 -6 48 -30 71 -30 28 -30 30 -30 137 l0 108 315 0
c357 0 335 6 335 -87 0 -100 -7 -117 -58 -140 -26 -12 -62 -35 -80 -50 l-34
-28 39 -56 c77 -111 69 -104 100 -88 15 8 47 32 70 55 56 53 59 95 11 145 -30
32 -33 40 -36 117 -2 45 -1 94 2 107 l6 25 210 0 c116 0 211 -1 212 -2 2 -2 5
-392 8 -868 l5 -865 24 -3 c12 -2 34 -1 47 2 24 6 24 9 24 117 l0 110 43 -3
42 -3 5 -110 5 -110 32 -3 c35 -3 40 -13 45 -82 l3 -35 95 -5 95 -5 3 -57 3
-58 79 0 c50 0 81 -4 86 -12 4 -7 8 -32 8 -57 l1 -46 65 -3 c79 -4 94 -14 86
-62 -8 -54 1 -61 80 -58 l69 3 3 210 c1 116 0 220 -3 232 -4 17 -14 23 -43 25
l-37 3 -5 555 -5 555 -138 3 -137 3 2 532 3 532 125 5 125 5 0 55 0 55 -2661
3 c-1463 1 -2664 -1 -2667 -5z m630 -129 c4 -11 -10 -31 -40 -62 l-47 -46 -49
48 c-67 66 -60 76 45 76 68 0 86 -3 91 -16z m3858 -4 c3 -11 3 -24 0 -30 -4
-7 -613 -10 -1826 -10 -1608 0 -1820 2 -1825 15 -4 8 -4 22 0 30 5 13 217 15
1825 15 1808 0 1820 0 1826 -20z m382 4 c4 -10 -10 -31 -42 -61 l-47 -45 -48
47 c-65 64 -59 75 46 75 68 0 86 -3 91 -16z m-4428 -97 c25 -27 47 -52 48 -55
5 -13 -116 -134 -126 -127 -12 7 -16 237 -4 248 8 8 24 -5 82 -66z m285 57
c11 -28 7 -232 -5 -240 -12 -7 -129 103 -129 123 0 14 108 133 120 133 5 0 11
-7 14 -16z m3946 -49 l64 -65 -25 -26 c-83 -90 -98 -104 -107 -104 -6 0 -12
24 -14 53 -4 75 2 207 11 207 3 0 35 -29 71 -65z m298 -60 c2 -73 -1 -122 -8
-129 -12 -12 -130 99 -130 122 0 18 111 133 124 129 7 -2 12 -49 14 -122z
m-3921 49 c6 -17 -52 -84 -74 -84 -7 0 -29 16 -48 36 -54 56 -48 64 47 64 53
0 70 -4 75 -16z m340 -1 c7 -17 -56 -83 -80 -83 -22 0 -80 67 -74 84 9 24 145
23 154 -1z m332 8 c12 -8 9 -16 -15 -44 -45 -54 -60 -56 -107 -9 -22 22 -36
45 -33 51 9 13 135 15 155 2z m341 -9 c0 -27 -64 -85 -86 -78 -25 8 -77 73
-69 86 3 6 40 10 81 10 65 0 74 -2 74 -18z m337 2 c7 -18 -53 -84 -77 -84 -24
0 -84 66 -77 84 5 13 22 16 77 16 55 0 72 -3 77 -16z m340 1 c4 -14 -61 -85
-78 -85 -19 0 -79 61 -79 81 0 15 10 17 77 16 42 -1 78 -7 80 -12z m336 2 c6
-15 -58 -87 -77 -87 -19 0 -89 77 -82 89 11 17 153 14 159 -2z m334 -3 c4 -10
-7 -29 -30 -52 -33 -33 -38 -35 -59 -23 -31 17 -71 68 -63 81 3 5 38 10 76 10
54 0 71 -3 76 -16z m340 -1 c6 -16 -56 -83 -76 -83 -25 0 -85 65 -77 85 5 13
19 15 78 13 43 -2 73 -8 75 -15z m338 7 c8 -13 -43 -76 -69 -85 -22 -8 -97 60
-89 81 6 17 148 20 158 4z m338 -4 c6 -15 -61 -86 -82 -86 -13 0 -81 68 -81
80 0 16 18 20 86 20 52 0 73 -4 77 -14z m-3529 -78 c20 -23 36 -47 36 -54 0
-18 -78 -96 -90 -89 -5 3 -10 43 -10 89 0 112 8 120 64 54z m226 -53 c0 -74
-3 -95 -14 -95 -13 0 -96 83 -96 97 0 13 84 93 97 93 10 0 13 -24 13 -95z
m111 53 c21 -24 38 -47 38 -53 0 -17 -76 -95 -93 -95 -14 0 -16 14 -16 95 0
113 10 120 71 53z m227 -56 c2 -70 0 -92 -10 -92 -16 0 -98 78 -98 93 0 16 83
98 95 94 5 -2 11 -44 13 -95z m110 55 c23 -23 42 -46 42 -50 0 -14 -83 -97
-96 -97 -11 0 -14 21 -14 95 0 111 6 116 68 52z m222 -52 c0 -63 -4 -95 -11
-95 -17 0 -89 80 -89 98 0 19 69 92 87 92 10 0 13 -24 13 -95z m112 58 c21
-20 38 -46 38 -57 0 -22 -67 -96 -87 -96 -10 0 -13 24 -13 95 0 109 5 114 62
58z m228 -58 c0 -54 -4 -95 -10 -95 -13 0 -79 59 -91 83 -9 16 -4 26 32 63 63
65 69 61 69 -51z m108 54 c20 -23 39 -46 41 -51 4 -13 -79 -98 -96 -98 -10 0
-13 23 -13 88 0 119 8 126 68 61z m230 -57 c2 -71 0 -92 -11 -92 -14 0 -97 81
-97 95 0 15 83 96 95 92 5 -2 11 -44 13 -95z m110 55 c23 -23 42 -46 42 -50 0
-15 -92 -107 -101 -101 -5 3 -9 48 -9 100 0 110 6 115 68 51z m227 -43 c1 -83
-2 -104 -15 -104 -12 0 -90 83 -90 96 0 17 80 96 93 91 7 -2 11 -33 12 -83z
m114 40 c30 -35 38 -50 32 -63 -17 -30 -79 -83 -90 -77 -7 4 -11 41 -11 90 0
114 8 120 69 50z m221 -49 c0 -109 -6 -115 -61 -57 -54 56 -54 57 -8 107 62
67 69 62 69 -50z m112 54 c21 -23 38 -47 38 -53 0 -6 -18 -31 -39 -55 -56 -65
-71 -54 -71 52 0 114 11 123 72 56z m228 -54 c0 -71 -3 -95 -13 -95 -14 0 -97
81 -97 95 0 14 83 95 97 95 10 0 13 -24 13 -95z m108 52 c23 -23 42 -47 42
-53 0 -15 -95 -105 -103 -98 -4 4 -7 49 -7 101 0 109 6 113 68 50z m227 -51
c0 -60 -4 -91 -12 -93 -13 -5 -93 75 -93 92 0 19 75 96 90 93 12 -3 15 -21 15
-92z m113 51 c23 -23 42 -46 42 -50 0 -14 -83 -97 -96 -97 -11 0 -14 21 -14
95 0 111 6 116 68 52z m225 31 c3 -10 2 -138 -2 -170 -2 -17 -25 -6 -62 32
-21 21 -39 46 -39 55 0 19 68 95 85 95 7 0 15 -6 18 -12z m109 -29 c21 -23 38
-47 38 -53 0 -6 -17 -31 -38 -55 -57 -66 -72 -55 -72 52 0 114 11 123 72 56z
m226 -49 c4 -104 -6 -116 -54 -69 -61 58 -62 65 -13 115 24 24 48 43 54 41 5
-2 11 -41 13 -87z m-3868 -62 c37 -40 66 -76 63 -80 -7 -13 -281 -10 -289 3
-8 13 124 149 144 149 7 0 44 -33 82 -72z m4240 0 c37 -40 66 -76 63 -80 -7
-13 -281 -10 -289 3 -8 13 124 149 144 149 8 0 44 -33 82 -72z m-3796 -88
c-15 -15 -176 -9 -181 7 -2 6 17 32 43 58 l48 46 50 -50 c36 -36 47 -54 40
-61z m644 50 c18 -19 31 -39 29 -45 -5 -14 -167 -19 -181 -5 -7 7 5 25 39 60
54 55 52 55 113 -10z m-346 13 c21 -20 38 -45 38 -55 0 -16 -10 -18 -90 -18
-78 0 -90 2 -90 17 0 21 69 93 89 93 8 0 32 -17 53 -37z m674 -4 c59 -58 51
-69 -51 -69 -48 0 -87 5 -90 10 -9 15 62 100 83 100 9 0 35 -19 58 -41z m340
0 c60 -59 51 -69 -57 -69 -77 0 -89 2 -89 17 0 21 69 93 89 93 8 0 34 -19 57
-41z m337 0 c57 -63 52 -69 -52 -69 -62 0 -91 4 -94 13 -6 16 72 97 93 97 9 0
33 -18 53 -41z m336 -3 c24 -24 40 -49 37 -55 -9 -14 -173 -15 -181 -1 -8 14
65 98 85 99 9 1 35 -19 59 -43z m340 0 c24 -24 40 -49 37 -55 -10 -16 -186
-15 -186 2 0 20 71 97 89 97 9 0 36 -20 60 -44z m333 7 c21 -20 38 -45 38 -55
0 -16 -10 -18 -90 -18 -78 0 -90 2 -90 17 0 21 69 93 89 93 8 0 32 -17 53 -37z
m341 -8 c21 -25 35 -49 32 -55 -8 -13 -172 -13 -180 -1 -8 15 68 100 90 100
12 0 36 -18 58 -44z m337 0 c31 -31 41 -48 34 -55 -15 -15 -179 -9 -179 7 0
20 66 93 84 93 9 0 37 -20 61 -45z m-3740 -149 c0 -20 -102 -126 -121 -126
-21 0 -133 116 -125 129 5 7 51 11 127 11 97 0 119 -3 119 -14z m4240 -1 c0
-20 -101 -125 -120 -125 -22 0 -134 115 -126 129 5 7 51 11 127 11 97 0 119
-3 119 -15z m-4470 -117 c33 -35 60 -65 60 -68 0 -14 -121 -131 -130 -125 -11
7 -14 237 -3 248 10 11 10 11 73 -55z m298 -59 c1 -63 -2 -121 -8 -129 -8 -12
-20 -4 -70 45 -33 33 -60 66 -60 74 0 19 111 132 125 128 6 -2 11 -51 13 -118z
m3940 59 c47 -47 59 -65 52 -77 -16 -28 -108 -121 -119 -121 -7 0 -11 42 -11
130 0 72 4 130 9 130 5 0 36 -28 69 -62z m300 -63 c2 -76 -1 -122 -8 -129 -8
-8 -28 6 -71 51 -32 33 -59 66 -59 73 0 17 112 131 124 127 7 -2 12 -49 14
-122z m-105 -135 c32 -34 56 -67 54 -74 -5 -14 -256 -20 -277 -6 -22 14 126
163 149 150 9 -4 42 -36 74 -70z m-4244 5 c35 -36 61 -71 59 -78 -6 -15 -250
-23 -275 -8 -14 8 -6 20 52 80 37 39 76 71 85 71 9 0 45 -29 79 -65z m4264
-174 c29 -2 19 -38 -20 -70 -31 -25 -47 -31 -87 -31 -44 0 -55 4 -88 37 -21
20 -38 43 -38 50 0 15 97 21 233 14z m-4218 -10 c3 -6 -12 -28 -33 -50 -36
-38 -43 -41 -93 -41 -48 0 -57 4 -91 37 -61 59 -55 63 86 63 69 0 127 -4 131
-9z m59 -77 c10 -25 7 -218 -4 -234 -8 -12 -15 -9 -45 20 -33 32 -35 38 -35
99 0 60 3 68 32 98 36 37 43 40 52 17z m3922 -21 c30 -32 34 -44 34 -91 0 -46
-5 -59 -32 -92 -53 -64 -58 -57 -58 90 0 89 4 130 11 130 6 0 27 -17 45 -37z
m-4252 -111 c105 -61 129 -205 48 -294 -64 -71 -142 -87 -228 -46 -118 55
-140 224 -41 316 53 50 156 61 221 24z m4714 0 c71 -32 115 -130 93 -210 -33
-126 -153 -184 -267 -131 -123 58 -149 215 -51 311 59 57 143 68 225 30z
m-4434 -175 c12 -19 3 -32 -19 -24 -17 7 -21 51 -3 45 6 -2 16 -12 22 -21z
m4004 0 c4 -21 -25 -34 -40 -19 -8 8 -8 16 2 27 16 19 34 15 38 -8z m-4018
-117 c0 -5 -5 -10 -11 -10 -5 0 -7 5 -4 10 3 6 8 10 11 10 2 0 4 -4 4 -10z
m66 -84 c8 -33 1 -222 -9 -232 -4 -4 -23 8 -42 26 -33 32 -35 38 -35 99 0 60
3 68 32 98 38 39 46 41 54 9z m3921 -12 c29 -32 33 -43 33 -92 0 -51 -3 -60
-37 -94 -20 -21 -41 -38 -45 -38 -4 0 -8 59 -8 130 0 93 3 130 12 130 6 0 27
-16 45 -36z m-4225 -81 c83 -45 133 -136 126 -230 -11 -141 -108 -233 -248
-233 -108 0 -184 49 -229 146 -59 125 11 290 144 339 57 21 145 12 207 -22z
m4705 8 c47 -23 100 -80 120 -129 19 -46 19 -148 0 -193 -21 -52 -69 -101
-122 -128 -40 -20 -58 -23 -124 -19 -92 5 -147 35 -191 104 -57 90 -58 189 -4
276 66 105 212 145 321 89z m-4459 -203 c18 -18 15 -28 -8 -28 -13 0 -20 7
-20 20 0 23 10 26 28 8z m4008 1 c10 -16 -18 -40 -35 -29 -12 7 -12 11 -2 24
16 19 27 20 37 5z"/>
<path d="M582 1653 c-7 -3 -20 -19 -28 -35 -15 -29 -15 -32 4 -57 48 -65 143
-11 106 60 -17 35 -47 46 -82 32z"/>
<path d="M5284 1634 c-20 -19 -24 -31 -19 -51 13 -52 69 -69 105 -33 26 26 25
64 -2 90 -29 27 -54 25 -84 -6z"/>
<path d="M546 1134 c-35 -36 -34 -77 3 -115 20 -20 39 -29 61 -29 38 0 90 47
90 82 0 23 -24 66 -44 80 -26 18 -83 8 -110 -18z"/>
<path d="M5288 1155 c-55 -31 -66 -100 -22 -140 58 -54 144 -16 144 63 0 66
-67 107 -122 77z"/>
<path d="M2357 953 c-4 -3 -7 -48 -7 -100 l0 -93 -597 -2 -598 -3 -5 -60 -5
-60 -95 -5 -95 -5 -5 -55 -5 -55 -85 -5 -85 -5 -5 -55 -5 -55 -70 -5 -70 -5
-5 -55 -5 -55 -77 -3 -78 -3 0 -49 0 -50 2508 2 2507 3 0 45 0 45 -77 3 c-86
3 -84 2 -90 82 l-3 35 -70 5 -70 5 -3 58 -3 57 -77 0 c-47 0 -83 5 -90 12 -7
7 -12 34 -12 60 l0 48 -88 0 c-55 0 -92 4 -100 12 -7 7 -12 36 -12 65 l0 53
-597 2 -598 3 -3 98 -3 97 -608 0 c-334 0 -611 -3 -614 -7z"/>
</g>
</svg>
